Coordinates
version=1
nRows=12
nColumns=24
inDegrees=yes

Units are S.I. units (second, meters, Newtons, ...)
Angles are in degrees.

endheader
time	pelvis_tilt	pelvis_list	pelvis_rotation	pelvis_tx	pelvis_ty	pelvis_tz	hip_flexion_r	hip_adduction_r	hip_rotation_r	knee_angle_r	ankle_angle_r	subtalar_angle_r	mtp_angle_r	hip_flexion_l	hip_adduction_l	hip_rotation_l	knee_angle_l	ankle_angle_l	subtalar_angle_l	mtp_angle_l	lumbar_extension	lumbar_bending	lumbar_rotation
      7.44000000	     13.28140006	      3.70751097	      1.54686611	      2.31153059	      0.94327996	     -0.23721971	     -2.72543212	     -6.98090910	     -1.72368793	    -64.15213069	     12.27522481	     -1.57018567	      0.00000000	     -9.77951767	      7.80151433	     12.69759829	     -9.44815085	     13.73486410	     -7.44134729	      0.00000000	    -26.43143979	     -4.07319356	     -0.31271626
      7.44500000	     13.27413497	      3.45142152	      1.70347529	      2.31665594	      0.94383903	     -0.23762437	     -1.97353468	     -6.68749733	     -1.79662461	    -64.00386610	     12.85627850	     -2.05921630	      0.00000000	    -10.24939926	      7.47493510	     12.75922310	     -9.16742889	     13.92949641	     -7.29149694	      0.00000000	    -26.46145029	     -3.67640973	     -0.57927338
      7.45000000	     13.25847139	      3.19899104	      1.85073646	      2.32184609	      0.94437025	     -0.23797504	     -1.23424969	     -6.39446570	     -1.86202954	    -63.76923726	     13.42794196	     -2.43536070	      0.00000000	    -10.72571639	      7.14655215	     12.81823202	     -8.85366530	     14.07403430	     -7.16506948	      0.00000000	    -26.46585743	     -3.29916315	     -0.84451201
      7.45500000	     13.24847529	      2.96975904	      2.05638330	      2.32697591	      0.94484617	     -0.23839802	     -0.52791897	     -6.13145659	     -2.00831260	    -63.45304167	     13.98257580	     -2.79580609	      0.00000000	    -11.18935985	      6.83140968	     12.89813853	     -8.57632493	     14.28039820	     -6.97005222	      0.00000000	    -26.48867585	     -2.91681132	     -1.18338704
      7.46000000	     13.23427036	      2.73470072	      2.24535093	      2.33210423	      0.94528584	     -0.23879604	      0.16860705	     -5.86353654	     -2.14086930	    -63.05593623	     14.53071834	     -3.05951098	      0.00000000	    -11.64790146	      6.51155917	     12.96022463	     -8.29114305	     14.44936129	     -6.81219378	      0.00000000	    -26.50529161	     -2.53730434	     -1.48872981
      7.46500000	     13.21545013	      2.50472736	      2.43056035	      2.33720401	      0.94566636	     -0.23920284	      0.85616853	     -5.60742211	     -2.28228508	    -62.58522759	     15.07299159	     -3.25239718	      0.00000000	    -12.09148437	      6.19881116	     13.00029166	     -8.02065514	     14.62203524	     -6.65317743	      0.00000000	    -26.52189992	     -2.15939507	     -1.77967097
      7.47000000	     13.19669753	      2.29277788	      2.63777277	      2.34231881	      0.94600704	     -0.23959254	      1.51521892	     -5.36826123	     -2.45058368	    -62.03163089	     15.59506416	     -3.39807162	      0.00000000	    -12.53521800	      5.89428654	     13.05138060	     -7.74930986	     14.80073725	     -6.46321153	      0.00000000	    -26.53505581	     -1.80010815	     -2.10849986
      7.47500000	     13.17712085	      2.08961573	      2.84693891	      2.34742392	      0.94630240	     -0.23997802	      2.15404517	     -5.14164300	     -2.62712597	    -61.39912301	     16.10596077	     -3.48009686	      0.00000000	    -12.97332126	      5.59651065	     13.09861580	     -7.48313415	     14.97400866	     -6.27590009	      0.00000000	    -26.54845739	     -1.45004837	     -2.43762599
      7.48000000	     13.16361710	      1.90101162	      3.07840566	      2.35252879	      0.94655866	     -0.24036813	      2.75784200	     -4.93237197	     -2.83425095	    -60.68557128	     16.59910738	     -3.52437079	      0.00000000	    -13.41282786	      5.30592443	     13.15413991	     -7.22641933	     15.15721038	     -6.07123799	      0.00000000	    -26.56776665	     -1.10854317	     -2.79415890
      7.48500000	     13.13971964	      1.71982670	      3.27932581	      2.35762319	      0.94676531	     -0.24068010	      3.35920857	     -4.72402318	     -2.99748088	    -59.90121941	     17.07958766	     -3.48899137	      0.00000000	    -13.84004699	      5.02508619	     13.19860677	     -6.96510211	     15.29763821	     -5.88806935	      0.00000000	    -26.57975817	     -0.80087256	     -3.12127158
      7.49000000	     13.12972983	      1.54914638	      3.53229093	      2.36272080	      0.94692849	     -0.24108091	      3.90645452	     -4.54072070	     -3.23972958	    -59.02887790	     17.54531510	     -3.44686776	      0.00000000	    -14.27062627	      4.74504250	     13.25346924	     -6.73003795	     15.51307716	     -5.66975784	      0.00000000	    -26.60307760	     -0.47225273	     -3.49042280
      7.49500000	     13.16009957	      1.40647881	      3.84058319	      2.36778754	      0.94711406	     -0.24150006	      4.36863520	     -4.38614846	     -3.54213577	    -58.06328795	     17.98876135	     -3.40860429	      0.00000000	    -14.73669788	      4.47207610	     13.34615142	     -6.50540986	     15.67743392	     -5.44137472	      0.00000000	    -26.68247314	     -0.14743453	     -3.94566542
